<svg width="18" height="18" viewBox="0 0 18 18" fill="none" xmlns="http://www.w3.org/2000/svg">
<path d="M7.58462 12.9261C7.73865 13.0803 7.9483 13.167 8.16613 13.167H13.1792C13.397 13.167 13.6066 13.0803 13.7607 12.9261C13.9147 12.772 14.0013 12.5621 14.0013 12.3441C14.0013 12.1261 13.9147 11.9182 13.7607 11.7641C13.6066 11.6099 13.397 11.5232 13.1792 11.5232H8.16613C7.9483 11.5232 7.73865 11.6099 7.58462 11.7641C7.43059 11.9182 7.34399 12.1261 7.34399 12.3441C7.34399 12.5621 7.43059 12.772 7.58462 12.9261Z" fill="#414141"/>
<path d="M4.24193 12.9261C4.39596 13.0803 4.60561 13.167 4.82344 13.167H5.65961C5.87745 13.167 6.08509 13.0803 6.23912 12.9261C6.39315 12.772 6.47975 12.5621 6.47975 12.3441C6.47975 12.1261 6.39315 11.9182 6.23912 11.7641C6.08509 11.6099 5.87745 11.5232 5.65961 11.5232H4.82344C4.60561 11.5232 4.39596 11.6099 4.24193 11.7641C4.0879 11.9182 4.0013 12.1261 4.0013 12.3441C4.0013 12.5621 4.0879 12.772 4.24193 12.9261Z" fill="#414141"/>
<path d="M4.28604 9.58237C4.42523 9.73712 4.61655 9.83556 4.82344 9.85734H5.65961C5.8665 9.83556 6.05782 9.73712 6.19701 9.58237C6.3362 9.42763 6.41157 9.22661 6.41157 9.01839C6.41157 8.81017 6.3362 8.60915 6.19701 8.4544C6.05782 8.29966 5.8665 8.20323 5.65961 8.18144H4.82344C4.61655 8.20323 4.42523 8.29966 4.28604 8.4544C4.14685 8.60915 4.06948 8.81017 4.06948 9.01839C4.06948 9.22661 4.14685 9.42763 4.28604 9.58237Z" fill="#414141"/>
<path d="M7.58462 9.58037C7.73865 9.73454 7.9483 9.82121 8.16613 9.82122H13.1792C13.397 9.82121 13.6066 9.73454 13.7607 9.58037C13.9147 9.4262 14.0013 9.21635 14.0013 8.99832C14.0013 8.78029 13.9147 8.57044 13.7607 8.41627C13.6066 8.2621 13.397 8.17743 13.1792 8.17743H8.16613C7.9483 8.17743 7.73865 8.2621 7.58462 8.41627C7.43059 8.57044 7.34399 8.78029 7.34399 8.99832C7.34399 9.21635 7.43059 9.4262 7.58462 9.58037Z" fill="#414141"/>
<path d="M7.58462 6.2386C7.73865 6.39278 7.9483 6.47945 8.16613 6.47945H13.1792C13.397 6.47945 13.6066 6.39278 13.7607 6.2386C13.9147 6.08443 14.0013 5.87459 14.0013 5.65656C14.0013 5.43852 13.9147 5.22868 13.7607 5.07451C13.6066 4.92033 13.397 4.83366 13.1792 4.83366H8.16613C7.9483 4.83366 7.73865 4.92033 7.58462 5.07451C7.43059 5.22868 7.34399 5.43852 7.34399 5.65656C7.34399 5.87459 7.43059 6.08443 7.58462 6.2386Z" fill="#414141"/>
<path d="M4.24193 6.2386C4.39596 6.39278 4.60561 6.47945 4.82344 6.47945H5.65961C5.87745 6.47945 6.08509 6.39278 6.23912 6.2386C6.39315 6.08443 6.47975 5.87459 6.47975 5.65656C6.47975 5.43852 6.39315 5.22868 6.23912 5.07451C6.08509 4.92033 5.87745 4.83366 5.65961 4.83366H4.82344C4.60561 4.83366 4.39596 4.92033 4.24193 5.07451C4.0879 5.22868 4.0013 5.43852 4.0013 5.65656C4.0013 5.87459 4.0879 6.08443 4.24193 6.2386Z" fill="#414141"/>
<path fill-rule="evenodd" clip-rule="evenodd" d="M0.667969 2.33366C0.667969 1.41318 1.41416 0.666992 2.33464 0.666992H15.668C16.5884 0.666992 17.3346 1.41318 17.3346 2.33366V15.667C17.3346 16.5875 16.5884 17.3337 15.668 17.3337H2.33464C1.41416 17.3337 0.667969 16.5875 0.667969 15.667V2.33366ZM2.33464 2.16699H15.668C15.76 2.16699 15.8346 2.24161 15.8346 2.33366V15.667C15.8346 15.759 15.76 15.8337 15.668 15.8337H2.33464C2.24259 15.8337 2.16797 15.759 2.16797 15.667V2.33366C2.16797 2.24161 2.24259 2.16699 2.33464 2.16699Z" fill="#414141"/>
</svg>
