<svg width="20" height="20" viewBox="0 0 20 20" fill="none" xmlns="http://www.w3.org/2000/svg">
<path fill-rule="evenodd" clip-rule="evenodd" d="M5.51642 7.07121C5.46061 6.84797 5.59634 6.62174 5.81959 6.56593L6.34508 6.43456C6.56833 6.37875 6.79455 6.51448 6.85037 6.73773L7.43616 9.0809H8.54507L9.09699 6.85766C9.17492 6.55352 9.449 6.34082 9.76297 6.34082H10.3741C10.6865 6.34082 10.9597 6.55154 11.0391 6.85376L11.605 9.0809H12.6391L13.187 6.74646C13.2396 6.52243 13.4638 6.38344 13.6878 6.43602L14.2152 6.55978C14.4392 6.61236 14.5782 6.8366 14.5256 7.06063L14.0515 9.0809H14.3516C14.7313 9.0809 15.0391 9.3887 15.0391 9.7684C15.0391 10.1481 14.7313 10.4559 14.3516 10.4559H13.7288L13.0295 13.4354C12.9566 13.7462 12.6782 13.9658 12.359 13.9658H11.9782C11.6658 13.9658 11.3926 13.7551 11.3133 13.4529L10.5266 10.4559H9.62996L8.86298 13.449C8.78504 13.7531 8.51096 13.9658 8.197 13.9658H7.77686C7.46139 13.9658 7.1864 13.7511 7.10989 13.4451L6.36259 10.4559H5.1849C4.8052 10.4559 4.4974 10.1481 4.4974 9.7684C4.4974 9.3887 4.8052 9.0809 5.1849 9.0809H6.01884L5.51642 7.07121ZM7.99256 11.3065L7.77991 10.4559H8.20373L7.99256 11.3065ZM10.1656 9.0809H9.9823L10.0729 8.72749L10.1656 9.0809ZM12.1426 11.1966L11.9544 10.4559H12.3164L12.1426 11.1966Z" fill="black"/>
<path fill-rule="evenodd" clip-rule="evenodd" d="M19.1654 9.99967C19.1654 15.0623 15.0613 19.1663 9.9987 19.1663C4.93609 19.1663 0.832031 15.0623 0.832031 9.99967C0.832031 4.93706 4.93609 0.833008 9.9987 0.833008C15.0613 0.833008 19.1654 4.93706 19.1654 9.99967ZM17.9154 9.99967C17.9154 14.3719 14.371 17.9163 9.9987 17.9163C5.62644 17.9163 2.08203 14.3719 2.08203 9.99967C2.08203 5.62742 5.62644 2.08301 9.9987 2.08301C14.371 2.08301 17.9154 5.62742 17.9154 9.99967Z" fill="black"/>
</svg>
