<svg width="18" height="18" viewBox="0 0 18 18" fill="none" xmlns="http://www.w3.org/2000/svg">
<path fill-rule="evenodd" clip-rule="evenodd" d="M9.94153 2.98965C9.74006 1.95695 8.26254 1.95695 8.06107 2.98965C7.75922 4.5369 6.0537 5.35824 4.65582 4.62954C3.7228 4.14317 2.80159 5.29835 3.48337 6.09974C4.50486 7.30043 4.08363 9.14595 2.64234 9.78453C1.68036 10.2107 2.00914 11.6512 3.06078 11.6178C4.6364 11.5678 5.81666 13.0478 5.41729 14.5728C5.15074 15.5907 6.48194 16.2317 7.11153 15.3887C8.05481 14.1257 9.94779 14.1257 10.8911 15.3887C11.5207 16.2317 12.8519 15.5907 12.5853 14.5728C12.1859 13.0478 13.3662 11.5678 14.9418 11.6178C15.9935 11.6512 16.3222 10.2107 15.3603 9.78453C13.919 9.14595 13.4977 7.30043 14.5192 6.09974C15.201 5.29835 14.2798 4.14317 13.3468 4.62954C11.9489 5.35824 10.2434 4.5369 9.94153 2.98965ZM6.68632 2.72145C7.18236 0.178786 10.8202 0.178786 11.3163 2.72145C11.4389 3.34987 12.1316 3.68345 12.6993 3.38749C14.9965 2.18999 17.2647 5.0342 15.5861 7.00735C15.1712 7.49501 15.3423 8.24456 15.9277 8.50392C18.2962 9.55332 17.4867 13.1 14.8974 13.0178C14.2574 12.9975 13.7781 13.5986 13.9403 14.218C14.5966 16.7241 11.319 18.3025 9.76883 16.2268C9.38572 15.7138 8.61689 15.7138 8.23377 16.2268C6.68363 18.3025 3.40601 16.7241 4.06231 14.218C4.22452 13.5986 3.74516 12.9975 3.10522 13.0178C0.515922 13.1 -0.293584 9.55332 2.07495 8.50392C2.66033 8.24456 2.83141 7.49501 2.41654 7.00735C0.737878 5.0342 3.00606 2.18999 5.30328 3.38749C5.87103 3.68345 6.56372 3.34987 6.68632 2.72145ZM9.0013 7.66343C8.0988 7.66343 7.36718 8.39505 7.36718 9.29754C7.36718 10.2 8.0988 10.9317 9.0013 10.9317C9.9038 10.9317 10.6354 10.2 10.6354 9.29754C10.6354 8.39505 9.9038 7.66343 9.0013 7.66343ZM5.96651 9.29754C5.96651 7.62147 7.32523 6.26275 9.0013 6.26275C10.6774 6.26275 12.0361 7.62147 12.0361 9.29754C12.0361 10.9736 10.6774 12.3323 9.0013 12.3323C7.32523 12.3323 5.96651 10.9736 5.96651 9.29754Z" fill="#414141"/>
</svg>
