<svg width="20" height="20" viewBox="0 0 20 20" fill="none" xmlns="http://www.w3.org/2000/svg">
<path fill-rule="evenodd" clip-rule="evenodd" d="M8.66762 0.793945C6.4441 0.793945 4.64323 2.59482 4.64323 4.81834C4.64323 7.04185 6.4441 8.84272 8.66762 8.84272C10.8911 8.84272 12.692 7.04185 12.692 4.81834C12.692 2.59482 10.8911 0.793945 8.66762 0.793945ZM8.66762 2.39867C10.0042 2.39867 11.0873 3.48178 11.0873 4.81834C11.0873 6.15489 10.0042 7.238 8.66762 7.238C7.33106 7.238 6.24795 6.15489 6.24795 4.81834C6.24795 3.48178 7.33106 2.39867 8.66762 2.39867Z" fill="#414141"/>
<path d="M1.27708 12.6289C0.731263 13.1327 0.417969 13.8088 0.417969 14.4374V16.2707C0.417969 16.6041 0.773946 17.2948 1.33464 17.2948H10.717C10.7434 17.2948 10.7545 17.261 10.7337 17.2449C10.0284 16.6997 9.91281 16.4266 9.66129 15.8322L9.64835 15.8017C9.61973 15.7341 9.5533 15.6901 9.4799 15.6901H2.02269V14.3268C2.02269 14.1656 2.11676 14.0199 2.2228 13.9025C2.33467 13.7786 2.49092 13.6524 2.67786 13.5276C3.05293 13.2772 3.57868 13.0148 4.19696 12.7763C5.43363 12.2993 7.06938 11.9071 8.66797 11.9071C8.87472 11.9071 9.01951 11.9137 9.22656 11.9261C9.27645 11.392 9.57292 10.9035 10.013 10.6321C10.0978 10.5798 10.0785 10.4077 9.97969 10.3951C9.49696 10.3333 9.08007 10.3024 8.66797 10.3024C7.28283 10.3024 5.19546 10.6516 3.45946 11.347C2.59163 11.6947 1.82426 12.1239 1.27708 12.6289Z" fill="#414141"/>
<path fill-rule="evenodd" clip-rule="evenodd" d="M19.1311 15.0607C18.5316 16.2672 17.2793 17.6739 15.0491 19.1823C15.0045 19.2125 14.9334 19.2125 14.8889 19.1823C12.6592 17.6739 11.4071 16.2671 10.8076 15.0605C10.2111 13.8598 10.261 12.8618 10.6258 12.1309C11.3701 10.6399 13.4571 10.1556 14.6931 11.294C14.7259 11.3242 14.7581 11.3555 14.7897 11.3881L14.9689 11.5723L15.1481 11.3881C15.1797 11.3556 15.2119 11.3243 15.2447 11.2942C16.4807 10.1565 18.5684 10.6408 19.3129 12.1317C19.6778 12.8624 19.7277 13.8602 19.1311 15.0607ZM16.1843 12.3967L14.9685 13.6457L13.7532 12.3962C13.53 12.1667 13.1661 12.083 12.8344 12.1294C12.4913 12.1774 12.1356 12.3697 11.9321 12.7522C11.7957 13.0086 11.6666 13.5183 12.0854 14.3822C12.4599 15.1547 13.2665 16.1749 14.8178 17.3538L14.9691 17.4688L15.1203 17.3539C16.6721 16.1749 17.4788 15.1548 17.8534 14.3824C18.2722 13.5187 18.143 13.0094 18.0066 12.7532C17.803 12.3706 17.4469 12.1783 17.1037 12.1302C16.7719 12.0837 16.4076 12.1672 16.1843 12.3967Z" fill="#414141"/>
</svg>
