<svg width="18" height="18" viewBox="0 0 18 18" fill="none" xmlns="http://www.w3.org/2000/svg">
<path d="M7.29207 6.89384C7.29207 7.50958 7.77013 7.90496 9.25671 8.28736C10.7433 8.66977 12.3346 9.29847 12.3346 11.1392C12.3346 12.4679 11.3196 13.2003 10.0426 13.4401V14.0003C10.0426 14.4606 9.66946 14.8337 9.20923 14.8337H8.91126C8.45102 14.8337 8.07792 14.4606 8.07792 14.0003V13.4272C7.0644 13.213 6.17001 12.6534 5.82008 11.701C5.67508 11.3064 6.02164 10.9448 6.44204 10.9448C6.81993 10.9448 7.11076 11.2523 7.30666 11.5754C7.57217 12.0134 8.11546 12.3059 9.06024 12.3059C10.5075 12.3059 10.8284 11.5929 10.8284 11.1457C10.8284 10.5429 10.501 9.97255 8.86378 9.58366C7.03667 9.1494 5.78585 8.40403 5.78585 6.90681C5.78585 5.65588 6.80746 4.83921 8.07792 4.56699V4.00033C8.07792 3.54009 8.45102 3.16699 8.91126 3.16699H9.20923C9.66946 3.16699 10.0426 3.54009 10.0426 4.00033V4.58644C11.0988 4.84154 11.7495 5.5097 12.0126 6.31385C12.1408 6.70584 11.8011 7.05588 11.3887 7.05588C11.0016 7.05588 10.7132 6.73371 10.5387 6.38822C10.3214 5.95804 9.86605 5.69477 9.06024 5.69477C7.9535 5.69477 7.29207 6.18736 7.29207 6.89384Z" fill="#414141"/>
<path fill-rule="evenodd" clip-rule="evenodd" d="M17.3346 9.00033C17.3346 13.6027 13.6037 17.3337 9.0013 17.3337C4.39893 17.3337 0.667969 13.6027 0.667969 9.00033C0.667969 4.39795 4.39893 0.666992 9.0013 0.666992C13.6037 0.666992 17.3346 4.39795 17.3346 9.00033ZM15.8346 9.00033C15.8346 12.7743 12.7752 15.8337 9.0013 15.8337C5.22736 15.8337 2.16797 12.7743 2.16797 9.00033C2.16797 5.22638 5.22736 2.16699 9.0013 2.16699C12.7752 2.16699 15.8346 5.22638 15.8346 9.00033Z" fill="#414141"/>
</svg>
