<svg width="20" height="16" viewBox="0 0 20 16" fill="none" xmlns="http://www.w3.org/2000/svg">
<path d="M4.81351 4.71295C4.81351 4.48283 5.00005 4.29629 5.23017 4.29629H6.98943C7.21955 4.29629 7.4061 4.48283 7.4061 4.71295V5.3611C7.4061 5.59122 7.21955 5.77777 6.98943 5.77777H5.23017C5.00005 5.77777 4.81351 5.59122 4.81351 5.3611V4.71295Z" fill="#414141"/>
<path d="M5.23018 7.25926C5.00006 7.25926 4.81351 7.44581 4.81351 7.67593V8.32407C4.81351 8.55419 5.00006 8.74074 5.23018 8.74074H6.98944C7.21956 8.74074 7.40611 8.55419 7.40611 8.32407V7.67593C7.40611 7.44581 7.21956 7.25926 6.98944 7.25926H5.23018Z" fill="#414141"/>
<path d="M4.81351 10.6389C4.81351 10.4088 5.00006 10.2222 5.23018 10.2222H6.98944C7.21956 10.2222 7.40611 10.4088 7.40611 10.6389V11.287C7.40611 11.5172 7.21956 11.7037 6.98944 11.7037H5.23018C5.00006 11.7037 4.81351 11.5172 4.81351 11.287V10.6389Z" fill="#414141"/>
<path d="M8.56351 4.29629C8.33339 4.29629 8.14684 4.48283 8.14684 4.71295V5.3611C8.14684 5.59122 8.33339 5.77777 8.56351 5.77777H10.3228C10.5529 5.77777 10.7394 5.59122 10.7394 5.3611V4.71295C10.7394 4.48283 10.5529 4.29629 10.3228 4.29629H8.56351Z" fill="#414141"/>
<path d="M8.14685 7.67593C8.14685 7.44581 8.33339 7.25926 8.56351 7.25926H10.3228C10.5529 7.25926 10.7394 7.44581 10.7394 7.67593V8.32407C10.7394 8.55419 10.5529 8.74074 10.3228 8.74074H8.56351C8.33339 8.74074 8.14685 8.55419 8.14685 8.32407V7.67593Z" fill="#414141"/>
<path d="M8.56351 10.2222C8.33339 10.2222 8.14685 10.4088 8.14685 10.6389V11.287C8.14685 11.5172 8.33339 11.7037 8.56351 11.7037H10.3228C10.5529 11.7037 10.7394 11.5172 10.7394 11.287V10.6389C10.7394 10.4088 10.5529 10.2222 10.3228 10.2222H8.56351Z" fill="#414141"/>
<path fill-rule="evenodd" clip-rule="evenodd" d="M4.25796 0.5C3.33749 0.5 2.59129 1.24619 2.59129 2.16667V13.8333C2.59129 13.8896 2.59408 13.9452 2.59953 14.0001H1.58203C1.16782 14.0001 0.832031 14.3358 0.832031 14.7501C0.832031 15.1643 1.16782 15.5001 1.58203 15.5001H18.4154C18.8296 15.5001 19.1654 15.1643 19.1654 14.7501C19.1654 14.3358 18.8296 14.0001 18.4154 14.0001H17.546C17.5515 13.9452 17.5542 13.8896 17.5542 13.8333V6.33335C17.5542 5.41287 16.8081 4.66668 15.8876 4.66668H13.295C13.1808 4.66668 13.0694 4.67816 12.9617 4.70002V2.16667C12.9617 1.24619 12.2155 0.5 11.295 0.5H4.25796ZM11.295 2H4.25796C4.16591 2 4.09129 2.07462 4.09129 2.16667V13.8333C4.09129 13.9254 4.16591 14 4.25796 14H11.295C11.387 14 11.4617 13.9254 11.4617 13.8333V2.16667C11.4617 2.07462 11.387 2 11.295 2ZM15.8876 6.16668H13.295C13.2029 6.16668 13.1283 6.2413 13.1283 6.33335V13.8333C13.1283 13.9254 13.2029 14 13.295 14H15.8876C15.9796 14 16.0542 13.9254 16.0542 13.8333V6.33335C16.0542 6.2413 15.9796 6.16668 15.8876 6.16668Z" fill="#414141"/>
</svg>
