<svg width="52" height="26" viewBox="0 0 52 26" fill="none" xmlns="http://www.w3.org/2000/svg">
<g clip-path="url(#clip0_545_9911)">
<rect width="52" height="26" rx="13" fill="url(#paint0_linear_545_9911)"/>
<path d="M8.46289 8.50553V19.2288H9.86255V11.8232H9.9292L12.162 19.1992H13.1951L15.4279 11.8529H15.5056V19.2288H16.8942V8.50553H15.1168L12.7285 16.2962H12.6285L10.2402 8.50553H8.46289Z" fill="white"/>
<path d="M19.8268 8.50553H18.3827V19.2288H19.8268V8.50553Z" fill="white"/>
<path d="M26.7473 12.1195H28.2025C27.9526 9.73486 26.5807 8.35742 24.8033 8.35742C22.6983 8.35742 21.1209 10.4014 21.1265 13.8672C21.1209 17.3256 22.6816 19.377 24.8033 19.377C26.7084 19.377 27.9803 17.7329 28.2025 15.6742H26.7473C26.5529 16.9331 25.7809 17.644 24.8256 17.644C23.5148 17.644 22.5761 16.3333 22.5817 13.8672C22.5761 11.4382 23.5092 10.0903 24.8256 10.0903C25.8031 10.0903 26.5751 10.8309 26.7473 12.1195Z" fill="white"/>
<path d="M29.4467 19.2288H30.8907V15.3039H32.4015L33.9789 19.2288H35.5896L33.8511 14.978C34.7953 14.467 35.2952 13.3858 35.3008 11.9269C35.2952 9.88298 34.3121 8.50553 32.4681 8.50553H29.4467V19.2288ZM30.8907 13.6895V10.12H32.246C33.3346 10.12 33.8234 10.7865 33.8234 11.9269C33.8234 13.0748 33.3346 13.6969 32.246 13.6895H30.8907Z" fill="white"/>
<path d="M43.7209 13.8672C43.7265 10.4014 42.138 8.35742 40.033 8.35742C37.9168 8.35742 36.3394 10.4014 36.345 13.8672C36.3394 17.3256 37.9168 19.377 40.033 19.377C42.138 19.377 43.7265 17.333 43.7209 13.8672ZM37.8002 13.8672C37.7946 11.4159 38.7222 10.0903 40.033 10.0903C41.3493 10.0903 42.2713 11.4159 42.2657 13.8672C42.2713 16.3184 41.3493 17.644 40.033 17.644C38.7222 17.644 37.7946 16.3184 37.8002 13.8672Z" fill="white"/>
</g>
<defs>
<linearGradient id="paint0_linear_545_9911" x1="-107.688" y1="18.8461" x2="100.636" y2="-14.3454" gradientUnits="userSpaceOnUse">
<stop stop-color="#16F2FF"/>
<stop offset="0.3899" stop-color="#EC008C"/>
<stop offset="1" stop-color="#FFF200"/>
</linearGradient>
<clipPath id="clip0_545_9911">
<rect width="52" height="26" fill="white"/>
</clipPath>
</defs>
</svg>
