<svg width="52" height="26" viewBox="0 0 52 26" fill="none" xmlns="http://www.w3.org/2000/svg">
<g clip-path="url(#clip0_545_9872)">
<rect width="52" height="26" rx="13" fill="url(#paint0_linear_545_9872)"/>
<path d="M16.6974 8.23503H15.2644V15.5666H15.1866L11.3987 8.23503H10.0879V18.9583H11.532V11.6268H11.5986L15.4088 18.9583H16.6974V8.23503Z" fill="white"/>
<path d="M19.2079 18.9583L19.8744 16.3071H22.9014L23.5735 18.9583H25.1176L22.2738 8.23503H20.4965L17.6638 18.9583H19.2079ZM20.2632 14.752L21.3518 10.4271H21.4185L22.5126 14.752H20.2632Z" fill="white"/>
<path d="M32.6824 8.23503H31.2494V15.5666H31.1716L27.3837 8.23503H26.0729V18.9583H27.517V11.6268H27.5836L31.3938 18.9583H32.6824V8.23503Z" fill="white"/>
<path d="M41.3469 13.5967C41.3525 10.1309 39.764 8.08691 37.6589 8.08691C35.5428 8.08691 33.9654 10.1309 33.9709 13.5967C33.9654 17.0551 35.5428 19.1064 37.6589 19.1064C39.764 19.1064 41.3525 17.0625 41.3469 13.5967ZM35.4261 13.5967C35.4206 11.1454 36.3481 9.81982 37.6589 9.81982C38.9753 9.81982 39.8973 11.1454 39.8917 13.5967C39.8973 16.0479 38.9753 17.3735 37.6589 17.3735C36.3481 17.3735 35.4206 16.0479 35.4261 13.5967Z" fill="white"/>
</g>
<defs>
<linearGradient id="paint0_linear_545_9872" x1="-50.1534" y1="20.6263" x2="168.473" y2="-18.0876" gradientUnits="userSpaceOnUse">
<stop stop-color="#16F2FF"/>
<stop offset="0.3899" stop-color="#EC008C"/>
<stop offset="1" stop-color="#FFF200"/>
</linearGradient>
<clipPath id="clip0_545_9872">
<rect width="52" height="26" fill="white"/>
</clipPath>
</defs>
</svg>
