<svg width="52" height="26" viewBox="0 0 52 26" fill="none" xmlns="http://www.w3.org/2000/svg">
<g clip-path="url(#clip0_545_9833)">
<rect width="52" height="26" rx="13" fill="url(#paint0_linear_545_9833)"/>
<path d="M6.02539 8.23503V18.9583H7.42505V11.5527H7.4917L9.72449 18.9287H10.7576L12.9904 11.5824H13.0681V18.9583H14.4567V8.23503H12.6793L10.291 16.0257H10.191L7.80273 8.23503H6.02539Z" fill="white"/>
<path d="M16.9672 18.9583L17.6337 16.3071H20.6607L21.3328 18.9583H22.8768L20.0331 8.23503H18.2557L15.4231 18.9583H16.9672ZM18.0225 14.752L19.1111 10.4271H19.1777L20.2719 14.752H18.0225Z" fill="white"/>
<path d="M28.8754 11.849H30.3306C30.0806 9.46436 28.7087 8.08691 26.9314 8.08691C24.8264 8.08691 23.249 10.1309 23.2545 13.5967C23.249 17.0551 24.8097 19.1064 26.9314 19.1064C28.8365 19.1064 30.1084 17.4624 30.3306 15.4036H28.8754C28.681 16.6626 27.9089 17.3735 26.9536 17.3735C25.6428 17.3735 24.7042 16.0627 24.7097 13.5967C24.7042 11.1676 25.6373 9.81982 26.9536 9.81982C27.9312 9.81982 28.7032 10.5604 28.8754 11.849Z" fill="white"/>
<path d="M31.5747 18.9583H33.0188V15.0334H34.5295L36.1069 18.9583H37.7177L35.9792 14.7075C36.9234 14.1965 37.4233 13.1153 37.4288 11.6564C37.4233 9.61247 36.4402 8.23503 34.5962 8.23503H31.5747V18.9583ZM33.0188 13.4189V9.84945H34.374C35.4626 9.84945 35.9514 10.516 35.9514 11.6564C35.9514 12.8043 35.4626 13.4264 34.374 13.4189H33.0188Z" fill="white"/>
<path d="M45.849 13.5967C45.8546 10.1309 44.2661 8.08691 42.161 8.08691C40.0449 8.08691 38.4675 10.1309 38.473 13.5967C38.4675 17.0551 40.0449 19.1064 42.161 19.1064C44.2661 19.1064 45.8546 17.0625 45.849 13.5967ZM39.9282 13.5967C39.9227 11.1454 40.8502 9.81982 42.161 9.81982C43.4774 9.81982 44.3994 11.1454 44.3938 13.5967C44.3994 16.0479 43.4774 17.3735 42.161 17.3735C40.8502 17.3735 39.9227 16.0479 39.9282 13.5967Z" fill="white"/>
</g>
<defs>
<linearGradient id="paint0_linear_545_9833" x1="-158.622" y1="18.0693" x2="69.1012" y2="-4.00988" gradientUnits="userSpaceOnUse">
<stop stop-color="#16F2FF"/>
<stop offset="0.23524" stop-color="#EC008C"/>
<stop offset="1" stop-color="#FFF200"/>
</linearGradient>
<clipPath id="clip0_545_9833">
<rect width="52" height="26" fill="white"/>
</clipPath>
</defs>
</svg>
